<svg width="33" height="28" viewBox="0 0 33 28" fill="none" xmlns="http://www.w3.org/2000/svg">
<path d="M0.458984 5.95739V0.818181H22.5882V5.95739H14.6493V27H8.41069V5.95739H0.458984Z" fill="white"/>
<path d="M29.1944 27.3707C28.274 27.3707 27.4856 27.0469 26.8294 26.3991C26.1816 25.7514 25.862 24.9673 25.8706 24.0469C25.862 23.1435 26.1816 22.3722 26.8294 21.733C27.4856 21.0852 28.274 20.7614 29.1944 20.7614C30.0637 20.7614 30.8308 21.0852 31.4956 21.733C32.1689 22.3722 32.5098 23.1435 32.5183 24.0469C32.5098 24.6605 32.3478 25.2187 32.0325 25.7216C31.7257 26.2244 31.3208 26.625 30.818 26.9233C30.3237 27.2216 29.7825 27.3707 29.1944 27.3707Z" fill="#544275"/>
</svg>
